<?xml version="1.0" encoding="iso-8859-1"?>
<!-- Generator: Adobe Illustrator 19.0.0, SVG Export Plug-In . SVG Version: 6.00 Build 0)  -->
<svg version="1.1" id="Layer_1" xmlns="http://www.w3.org/2000/svg" xmlns:xlink="http://www.w3.org/1999/xlink" x="0px" y="0px"
	 viewBox="0 0 512 512" style="enable-background:new 0 0 512 512;" xml:space="preserve">
<polygon style="fill:#EB443F;" points="256,0 36.323,128 36.323,384 256,512 475.677,384 475.677,128 "/>
<polygon style="fill:#FF5A4E;" points="256,75.54 101.144,165.771 101.143,346.231 255.999,436.461 410.855,346.231 410.856,165.77 
	"/>
<polygon style="fill:#FFAA94;" points="475.677,128 410.856,165.77 256,75.54 256,0 "/>
<polygon style="fill:#FD443F;" points="475.677,384 410.855,346.231 410.856,165.77 475.677,128 "/>
<polygon style="fill:#BF2E29;" points="255.999,436.461 256,512 36.323,384 101.143,346.231 "/>
<g>
	<polygon style="fill:#FD443F;" points="101.144,165.771 36.323,128 256,0 256,75.54 	"/>
	<polygon style="fill:#FD443F;" points="256,133.682 151.037,194.841 151.036,317.161 255.999,378.319 360.962,317.16 
		360.963,194.841 	"/>
</g>
<polygon style="fill:#FF7E73;" points="151.036,317.161 256,256 255.999,378.319 "/>
<polygon style="fill:#EB443F;" points="256,256 360.963,194.841 256,133.682 "/>
<g>
</g>
<g>
</g>
<g>
</g>
<g>
</g>
<g>
</g>
<g>
</g>
<g>
</g>
<g>
</g>
<g>
</g>
<g>
</g>
<g>
</g>
<g>
</g>
<g>
</g>
<g>
</g>
<g>
</g>
</svg>
